# xmcd
#
# Track frame offsets: 
#        151
#        17903
#        33922
#        49814
#        66327
#        79413
#        95032
#        114753
#        131622
#        147781
#
# Disc length: 2141 seconds
#
# Revision: 0
# Processed by: cddbd v1.4PL0 Copyright (c) Steve Scherf et al.
# Submitted via: ExactAudioCopy v0.90b4
#
DISCID=87085b0a
DTITLE=Sylvia - A Cradle In Bethlehem
DYEAR=1900
DGENRE=Country
TTITLE0=Guided Bt A Star - O Come, O Come Emmanuel
TTITLE1=O Holy Night
TTITLE2=Angels We Have Heard On High
TTITLE3=A Cradle In Bethlehem
TTITLE4=Christmas Bells
TTITLE5=My Grown-Up Christmas List
TTITLE6=Silent Night
TTITLE7=When Heaven's Calling You
TTITLE8=What Child Is This
TTITLE9=Ave Maria
EXTD=
EXTT0=
EXTT1=
EXTT2=
EXTT3=
EXTT4=
EXTT5=
EXTT6=
EXTT7=
EXTT8=
EXTT9=
PLAYORDER=
